<svg width="64" height="64" viewBox="0 0 64 64" fill="none" xmlns="http://www.w3.org/2000/svg">
  <defs>
    <linearGradient id="devstrixGradient" x1="8" y1="8" x2="56" y2="56" gradientUnits="userSpaceOnUse">
      <stop offset="0" stop-color="#38bdf8" />
      <stop offset="1" stop-color="#4ade80" />
    </linearGradient>
    <filter id="shadow" x="0" y="0" width="64" height="64" filterUnits="userSpaceOnUse" color-interpolation-filters="sRGB">
      <feDropShadow dx="0" dy="2" stdDeviation="3" flood-color="#0f172a" flood-opacity="0.35" />
    </filter>
  </defs>
  <rect width="64" height="64" rx="18" fill="#0f172a" />
  <rect x="4" y="4" width="56" height="56" rx="16" fill="url(#devstrixGradient)" opacity="0.15" />
  <g filter="url(#shadow)">
    <path d="M20 18h10c9.389 0 16 6.611 16 16s-6.611 16-16 16H20c-1.105 0-2-.895-2-2V20c0-1.105.895-2 2-2zm8 8v16h2c5.523 0 8-3.805 8-8s-2.477-8-8-8h-2z" fill="#f8fafc" />
    <path d="M41 22l11 20" stroke="#f8fafc" stroke-width="4" stroke-linecap="round" />
    <path d="M52 22L41 42" stroke="#f8fafc" stroke-width="4" stroke-linecap="round" />
  </g>
</svg>
